Coordinates
version=1
nRows=22
nColumns=32
inDegrees=yes

Units are S.I. units (second, meters, Newtons, ...)
If the header above contains a line with 'inDegrees', this indicates whether rotational values are in degrees (yes) or radians (no).

endheader
time	pelvis_tilt	pelvis_list	pelvis_rotation	pelvis_tx	pelvis_ty	pelvis_tz	hip_flexion_r	hip_adduction_r	hip_rotation_r	knee_angle_r	knee_adduction_r	med_cond_adduction_r	lat_cond_adduction_r	patella_r_constrained_knee_angle	hip_flexion_l	hip_adduction_l	hip_rotation_l	knee_angle_l	knee_adduction_l	med_cond_adduction_l	lat_cond_adduction_l	patella_l_constrained_knee_angle	lumbar_extension	lumbar_bending	lumbar_rotation	ankle_angle_r	subtalar_angle_r	mtp_angle_r	ankle_angle_l	subtalar_angle_l	mtp_angle_l
      0.50500000	     -9.57772571	      2.94080090	      7.79877717	     -0.13044788	      0.84375991	      0.17215269	     35.41427211	     -5.96810811	     -4.04866243	     -6.26430125	      1.22255415	      0.00000000	      0.00000000	     -0.10933268	     -3.68908602	      2.90335532	      5.30833694	    -17.74276704	      2.02518809	     -0.00000000	     -0.00000000	     -0.30966970	     -8.83075583	     -4.71556701	     -6.33198728	     -1.54169703	     -5.54224553	      0.00000000	      8.13090170	     17.23476617	      0.00000000
      0.51000000	     -9.47288542	      2.69968508	      7.67598687	     -0.12287651	      0.84328085	      0.17271504	     35.52911135	     -5.47624702	     -3.25886380	     -7.34255682	      1.33736671	     -0.00000000	     -0.00000000	     -0.12815179	     -3.68919221	      2.51311261	      5.49804492	    -18.82503048	      2.17694855	     -0.00000000	     -0.00000000	     -0.32855876	     -8.78742591	     -4.41036713	     -6.22960613	     -1.84577024	     -5.01862463	     -0.00000000	      7.46821917	     17.17595147	     -0.00000000
      0.51500000	     -9.33647520	      2.45649156	      7.44339562	     -0.11536563	      0.84286857	      0.17329359	     35.64598154	     -4.90878078	     -2.43728621	     -8.40469328	      1.37033480	      0.00000000	      0.00000000	     -0.14668957	     -3.67901453	      2.12705629	      5.59196445	    -19.91149136	      2.37453594	      0.00000000	      0.00000000	     -0.34752108	     -8.76952508	     -3.91138736	     -6.01312952	     -2.60410270	     -4.81832278	      0.00000000	      6.40947267	     17.13640295	     -0.00000000
      0.52000000	     -9.29101129	      2.14602663	      7.19465271	     -0.10790813	      0.84241941	      0.17393990	     35.79523007	     -4.29329772	     -1.35373983	     -9.29370455	      1.53385287	     -0.00000000	     -0.00000000	     -0.16220574	     -3.46247364	      1.64483130	      5.74150292	    -21.17229772	      2.68984807	     -0.00000000	     -0.00000000	     -0.36952631	     -8.64021466	     -3.38358498	     -5.80963157	     -4.12885508	     -6.30905710	     -0.00000000	      5.52428300	     17.02173141	     -0.00000000
      0.52500000	     -9.24064079	      1.85809976	      6.92409889	     -0.10046545	      0.84198870	      0.17460399	     36.02915130	     -3.70140475	     -0.52118370	    -10.35014467	      1.61954966	      0.00000000	      0.00000000	     -0.18064410	     -3.18584088	      1.19861103	      5.86905095	    -22.51054901	      2.99705513	     -0.00000000	     -0.00000000	     -0.39288320	     -8.51835461	     -2.88060076	     -5.64537901	     -4.80656860	     -5.85188827	      0.00000000	      4.54591491	     16.91600693	     -0.00000000
      0.53000000	     -9.17819239	      1.56154373	      6.60576373	     -0.09307250	      0.84163054	      0.17531488	     36.23026669	     -3.07666987	      0.42049591	    -11.31234770	      1.74015976	     -0.00000000	     -0.00000000	     -0.19743771	     -2.85781927	      0.74549517	      5.93278726	    -23.91610096	      3.30546502	     -0.00000000	     -0.00000000	     -0.41741471	     -8.44260964	     -2.38744360	     -5.33637679	     -6.18559113	     -6.48018468	      0.00000000	      3.08453022	     16.84577210	     -0.00000000
      0.53500000	     -9.15327651	      1.21299300	      6.30033354	     -0.08574996	      0.84126103	      0.17600997	     36.50344351	     -2.43680753	      1.22532126	    -12.33752629	      1.86329514	      0.00000000	      0.00000000	     -0.21533046	     -2.38050182	      0.21248499	      6.06022341	    -25.44844019	      3.70927029	      0.00000000	      0.00000000	     -0.44415907	     -8.30840258	     -1.78808782	     -5.06831702	     -7.03646767	     -6.31836891	      0.00000000	      1.64731856	     16.80615564	     -0.00000000
      0.54000000	     -9.13489606	      0.86699421	      5.97416877	     -0.07847748	      0.84091552	      0.17673359	     36.76354928	     -1.80689855	      2.12770191	    -13.33521976	      2.04325132	      0.00000000	      0.00000000	     -0.23274349	     -1.82013495	     -0.32255821	      6.19151362	    -27.07085592	      4.13989368	     -0.00000000	     -0.00000000	     -0.47247557	     -8.17732727	     -1.20265439	     -4.80537211	     -7.87706882	     -6.32689954	      0.00000000	      0.06817223	     16.70334956	      0.00000000
      0.54500000	     -9.25253105	      0.61312295	      5.66671662	     -0.07136508	      0.84049985	      0.17738164	     37.15516059	     -1.33626849	      3.14692124	    -14.28632825	      2.34019639	      0.00000000	      0.00000000	     -0.24934347	     -1.05833139	     -0.69819523	      6.64541886	    -28.75173899	      4.67416884	     -0.00000000	     -0.00000000	     -0.50181251	     -7.98691670	     -0.82432284	     -4.72418195	     -8.61200148	     -6.31395847	      0.00000000	     -1.32478152	     16.55185503	     -0.00000000
      0.55000000	     -9.10024784	      0.10278840	      5.25538251	     -0.06411620	      0.84032363	      0.17815601	     37.26222206	     -0.48699627	      3.75382107	    -15.26261910	      2.44320248	      0.00000000	      0.00000000	     -0.26638296	     -0.48894116	     -1.48678353	      6.41185346	    -30.48554554	      5.06089679	      0.00000000	      0.00000000	     -0.53207314	     -8.00498534	      0.05004804	     -4.23358240	     -9.32195080	     -6.59110388	     -0.00000000	     -3.50939321	     16.57293718	     -0.00000000
      0.55500000	     -9.05344437	     -0.29198278	      4.90256677	     -0.05694840	      0.84013981	      0.17883765	     37.42846284	      0.14718019	      4.49725706	    -16.19726843	      2.72509187	     -0.00000000	     -0.00000000	     -0.28269566	      0.21174163	     -2.08119016	      6.60420377	    -32.21368871	      5.54655364	      0.00000000	      0.00000000	     -0.56223493	     -7.89924124	      0.69635563	     -3.77278677	     -9.98123799	     -7.06381941	     -0.00000000	     -5.92621466	     16.55633998	      0.00000000
      0.56000000	     -9.03357601	     -0.69435340	      4.54615221	     -0.04985929	      0.83992414	      0.17951889	     37.60021018	      0.78411421	      5.26415463	    -17.12897169	      3.04364006	      0.00000000	      0.00000000	     -0.29895695	      1.01433947	     -2.69932422	      6.78898005	    -34.00335738	      6.06492686	      0.00000000	      0.00000000	     -0.59347054	     -7.82667832	      1.33013862	     -3.60647984	    -10.14173898	     -7.05109271	     -0.00000000	     -7.81189220	     16.46588496	      0.00000000
      0.56500000	     -8.94884867	     -0.89219623	      4.27825783	     -0.04283054	      0.83983427	      0.18001687	     37.76916606	      1.12203604	      5.70462067	    -18.28984374	      3.35851606	     -0.00000000	     -0.00000000	     -0.31921799	      1.70714658	     -3.02646011	      7.40742061	    -35.67049369	      6.70335101	     -0.00000000	     -0.00000000	     -0.62256756	     -7.83324568	      1.69180191	     -3.41216600	     -9.98799168	     -6.75724961	      0.00000000	     -9.22476089	     16.24200213	     -0.00000000
      0.57000000	     -8.91264944	     -1.54589770	      3.84836215	     -0.03575960	      0.83971787	      0.18071812	     37.69568564	      2.05200053	      6.63140802	    -18.83757206	      3.79562945	     -0.00000000	     -0.00000000	     -0.32877766	      2.66274202	     -3.96448969	      7.09009188	    -37.61194525	      6.97786842	      0.00000000	      0.00000000	     -0.65645228	     -7.79018419	      2.74426306	     -2.90274056	    -10.79420095	     -8.77813096	      0.00000000	    -12.14082442	     16.37005999	      0.00000000
      0.57500000	     -8.81187006	     -1.93401493	      3.50546734	     -0.02875672	      0.83971737	      0.18126433	     37.65127506	      2.63754959	      7.15434227	    -19.72066612	      4.15114201	     -0.00000000	     -0.00000000	     -0.34419055	      3.47663544	     -4.53658743	      7.22826359	    -39.38053141	      7.37779289	     -0.00000000	     -0.00000000	     -0.68731993	     -7.83958942	      3.36715551	     -2.57527244	    -10.19962808	     -8.60914153	      0.00000000	    -14.02605932	     16.35376202	      0.00000000
      0.58000000	     -8.70767174	     -2.22504300	      3.21471190	     -0.02180524	      0.83979894	      0.18164357	     37.55738215	      3.04467586	      7.55486507	    -20.56533005	      4.57196487	     -0.00000000	     -0.00000000	     -0.35893272	      4.29721534	     -4.93283911	      7.50615315	    -41.10838388	      7.74523845	     -0.00000000	     -0.00000000	     -0.71747665	     -7.94724761	      3.88649733	     -2.51161739	     -9.53389610	     -8.25109248	     -0.00000000	    -15.53243356	     16.15420504	      0.00000000
      0.58500000	     -8.57944722	     -2.71626182	      2.87115712	     -0.01479795	      0.83988495	      0.18216114	     37.34495927	      3.77579677	      7.87551222	    -21.32529435	      4.80624016	      0.00000000	      0.00000000	     -0.37219660	      5.15137254	     -5.62797456	      7.41495113	    -42.89128372	      7.97110618	     -0.00000000	     -0.00000000	     -0.74859412	     -7.98816400	      4.68590449	     -2.02675630	     -8.72745018	     -8.50681906	      0.00000000	    -17.48494863	     16.27782591	      0.00000000
      0.59000000	     -8.45800570	     -3.07814206	      2.56567628	     -0.00787696	      0.84005924	      0.18258493	     37.09422537	      4.32152083	      8.09853972	    -22.03631708	      5.07347297	     -0.00000000	     -0.00000000	     -0.38460629	      6.01562643	     -6.12209212	      7.43897331	    -44.61771379	      8.16689559	      0.00000000	      0.00000000	     -0.77872601	     -8.10224820	      5.30467695	     -1.67164122	     -7.95267824	     -8.71030372	      0.00000000	    -18.93928895	     16.24474316	     -0.00000000
      0.59500000	     -8.29893924	     -3.38435290	      2.27628578	     -0.00098960	      0.84038901	      0.18292599	     36.73153703	      4.78744371	      8.23077219	    -22.69054263	      5.31730053	     -0.00000000	     -0.00000000	     -0.39602468	      6.82862703	     -6.52073659	      7.45889355	    -46.26849661	      8.31031254	      0.00000000	      0.00000000	     -0.80753761	     -8.24379420	      5.84726690	     -1.53649898	     -7.03311234	     -8.50718957	      0.00000000	    -20.04359323	     16.10112785	      0.00000000
      0.60000000	     -8.18428102	     -3.70331295	      2.00059063	      0.00584169	      0.84069309	      0.18327105	     36.36193196	      5.26726979	      8.21753886	    -23.25575596	      5.47059351	      0.00000000	      0.00000000	     -0.40588951	      7.73657224	     -6.93354104	      7.41797855	    -47.93647946	      8.38926524	      0.00000000	      0.00000000	     -0.83664940	     -8.36436460	      6.37974269	     -1.23132399	     -6.00547078	     -8.38417936	     -0.00000000	    -20.99049549	     15.98006662	      0.00000000
      0.60500000	     -8.06828414	     -3.95377988	      1.74306578	      0.01259114	      0.84109423	      0.18359025	     35.93644024	      5.67869723	      8.16132292	    -23.77647912	      5.59026067	      0.00000000	      0.00000000	     -0.41497785	      8.65590751	     -7.24884272	      7.39043438	    -49.57715340	      8.44234810	     -0.00000000	     -0.00000000	     -0.86528456	     -8.49956977	      6.84492560	     -0.78783126	     -5.30219000	     -8.89449361	      0.00000000	    -21.81973402	     15.91102679	     -0.00000000
      0.61000000	     -7.95611435	     -4.19993367	      1.49167813	      0.01931701	      0.84155531	      0.18388837	     35.44473810	      6.07475577	      7.99064840	    -24.19452215	      5.62706651	     -0.00000000	     -0.00000000	     -0.42227407	      9.58256763	     -7.55669322	      7.31549146	    -51.17193137	      8.45291983	     -0.00000000	     -0.00000000	     -0.89311869	     -8.61609519	      7.26185112	     -0.67343954	     -4.24214140	     -8.33344406	     -0.00000000	    -22.18800288	     15.64801025	     -0.00000000
